<mxfile host="Electron" modified="2023-12-30T19:48:13.535Z" agent="Mozilla/5.0 (Windows NT 10.0; Win64; x64) AppleWebKit/537.36 (KHTML, like Gecko) draw.io/21.6.1 Chrome/112.0.5615.204 Electron/24.6.1 Safari/537.36" etag="-J1eaSL4Mywjvtr2gMFg" version="21.6.1" type="device">
  <diagram name="Page-1" id="Jjq3vuGFmv7cD4TqGTQA">
    <mxGraphModel dx="2363" dy="1367" grid="1" gridSize="10" guides="1" tooltips="1" connect="1" arrows="1" fold="1" page="1" pageScale="1" pageWidth="850" pageHeight="1100" math="0" shadow="0">
      <root>
        <mxCell id="0" />
        <mxCell id="1" parent="0" />
        <mxCell id="9YiL5SmmNUJITHrNY-xT-41" style="edgeStyle=orthogonalEdgeStyle;rounded=0;orthogonalLoop=1;jettySize=auto;html=1;exitX=0.5;exitY=0;exitDx=0;exitDy=0;" parent="1" source="9YiL5SmmNUJITHrNY-xT-17" target="9YiL5SmmNUJITHrNY-xT-23" edge="1">
          <mxGeometry relative="1" as="geometry">
            <mxPoint x="639.89" y="400" as="targetPoint" />
          </mxGeometry>
        </mxCell>
        <mxCell id="9YiL5SmmNUJITHrNY-xT-17" value="user_id" style="whiteSpace=wrap;html=1;align=center;" parent="1" vertex="1">
          <mxGeometry x="899.89" y="450" width="100" height="40" as="geometry" />
        </mxCell>
        <mxCell id="9YiL5SmmNUJITHrNY-xT-18" value="order_id" style="whiteSpace=wrap;html=1;align=center;" parent="1" vertex="1">
          <mxGeometry x="799.89" y="450" width="100" height="40" as="geometry" />
        </mxCell>
        <mxCell id="9YiL5SmmNUJITHrNY-xT-19" value="order_amount" style="whiteSpace=wrap;html=1;align=center;" parent="1" vertex="1">
          <mxGeometry x="999.89" y="450" width="100" height="40" as="geometry" />
        </mxCell>
        <mxCell id="9YiL5SmmNUJITHrNY-xT-20" value="createdAt" style="whiteSpace=wrap;html=1;align=center;" parent="1" vertex="1">
          <mxGeometry x="1099.8899999999999" y="450" width="100" height="40" as="geometry" />
        </mxCell>
        <mxCell id="9YiL5SmmNUJITHrNY-xT-21" value="product_id" style="whiteSpace=wrap;html=1;align=center;" parent="1" vertex="1">
          <mxGeometry x="1119.9999999999998" y="680" width="100" height="40" as="geometry" />
        </mxCell>
        <mxCell id="9YiL5SmmNUJITHrNY-xT-22" value="product_name" style="whiteSpace=wrap;html=1;align=center;" parent="1" vertex="1">
          <mxGeometry x="1219.9999999999998" y="680" width="100" height="40" as="geometry" />
        </mxCell>
        <mxCell id="9YiL5SmmNUJITHrNY-xT-23" value="user_id" style="whiteSpace=wrap;html=1;align=center;" parent="1" vertex="1">
          <mxGeometry x="479.89" y="250" width="100" height="40" as="geometry" />
        </mxCell>
        <mxCell id="9YiL5SmmNUJITHrNY-xT-25" value="password" style="whiteSpace=wrap;html=1;align=center;" parent="1" vertex="1">
          <mxGeometry x="579.89" y="250" width="100" height="40" as="geometry" />
        </mxCell>
        <mxCell id="9YiL5SmmNUJITHrNY-xT-26" value="postal_code" style="whiteSpace=wrap;html=1;align=center;" parent="1" vertex="1">
          <mxGeometry x="679.89" y="250" width="100" height="40" as="geometry" />
        </mxCell>
        <mxCell id="9YiL5SmmNUJITHrNY-xT-27" value="country" style="whiteSpace=wrap;html=1;align=center;" parent="1" vertex="1">
          <mxGeometry x="779.89" y="250" width="100" height="40" as="geometry" />
        </mxCell>
        <mxCell id="9YiL5SmmNUJITHrNY-xT-29" value="password_dreser_token" style="whiteSpace=wrap;html=1;align=center;" parent="1" vertex="1">
          <mxGeometry x="879.89" y="250" width="130" height="40" as="geometry" />
        </mxCell>
        <mxCell id="9YiL5SmmNUJITHrNY-xT-31" value="code" style="whiteSpace=wrap;html=1;align=center;" parent="1" vertex="1">
          <mxGeometry x="1009.89" y="250" width="100" height="40" as="geometry" />
        </mxCell>
        <mxCell id="9YiL5SmmNUJITHrNY-xT-32" value="role" style="whiteSpace=wrap;html=1;align=center;" parent="1" vertex="1">
          <mxGeometry x="1109.8899999999999" y="250" width="100" height="40" as="geometry" />
        </mxCell>
        <mxCell id="9YiL5SmmNUJITHrNY-xT-33" value="first_name" style="whiteSpace=wrap;html=1;align=center;" parent="1" vertex="1">
          <mxGeometry x="1209.8899999999999" y="250" width="100" height="40" as="geometry" />
        </mxCell>
        <mxCell id="9YiL5SmmNUJITHrNY-xT-34" value="last_name" style="whiteSpace=wrap;html=1;align=center;" parent="1" vertex="1">
          <mxGeometry x="1309.8899999999999" y="250" width="100" height="40" as="geometry" />
        </mxCell>
        <mxCell id="9YiL5SmmNUJITHrNY-xT-35" value="state" style="whiteSpace=wrap;html=1;align=center;" parent="1" vertex="1">
          <mxGeometry x="1409.8899999999999" y="250" width="100" height="40" as="geometry" />
        </mxCell>
        <mxCell id="9YiL5SmmNUJITHrNY-xT-36" value="city" style="whiteSpace=wrap;html=1;align=center;" parent="1" vertex="1">
          <mxGeometry x="1509.8899999999999" y="250" width="100" height="40" as="geometry" />
        </mxCell>
        <mxCell id="9YiL5SmmNUJITHrNY-xT-37" value="User" style="text;html=1;strokeColor=none;fillColor=none;align=center;verticalAlign=middle;whiteSpace=wrap;rounded=0;" parent="1" vertex="1">
          <mxGeometry x="479.89" y="200" width="60" height="30" as="geometry" />
        </mxCell>
        <mxCell id="9YiL5SmmNUJITHrNY-xT-38" value="" style="endArrow=none;html=1;rounded=0;exitX=0.1;exitY=0.75;exitDx=0;exitDy=0;exitPerimeter=0;" parent="1" source="9YiL5SmmNUJITHrNY-xT-23" edge="1">
          <mxGeometry width="50" height="50" relative="1" as="geometry">
            <mxPoint x="504.89" y="330" as="sourcePoint" />
            <mxPoint x="554.89" y="280" as="targetPoint" />
          </mxGeometry>
        </mxCell>
        <mxCell id="9YiL5SmmNUJITHrNY-xT-39" value="" style="endArrow=none;dashed=1;html=1;rounded=0;exitX=0.1;exitY=0.75;exitDx=0;exitDy=0;exitPerimeter=0;" parent="1" source="9YiL5SmmNUJITHrNY-xT-17" edge="1">
          <mxGeometry width="50" height="50" relative="1" as="geometry">
            <mxPoint x="929.89" y="520" as="sourcePoint" />
            <mxPoint x="989.89" y="480" as="targetPoint" />
          </mxGeometry>
        </mxCell>
        <mxCell id="9YiL5SmmNUJITHrNY-xT-40" value="" style="endArrow=none;html=1;rounded=0;exitX=0.2;exitY=0.75;exitDx=0;exitDy=0;exitPerimeter=0;" parent="1" source="9YiL5SmmNUJITHrNY-xT-18" edge="1">
          <mxGeometry width="50" height="50" relative="1" as="geometry">
            <mxPoint x="829.89" y="530" as="sourcePoint" />
            <mxPoint x="879.89" y="480" as="targetPoint" />
          </mxGeometry>
        </mxCell>
        <mxCell id="9YiL5SmmNUJITHrNY-xT-42" value="order_detail_id" style="whiteSpace=wrap;html=1;align=center;" parent="1" vertex="1">
          <mxGeometry x="570" y="850" width="100" height="40" as="geometry" />
        </mxCell>
        <mxCell id="9YiL5SmmNUJITHrNY-xT-43" value="short_description" style="whiteSpace=wrap;html=1;align=center;" parent="1" vertex="1">
          <mxGeometry x="1619.9999999999998" y="680" width="100" height="40" as="geometry" />
        </mxCell>
        <mxCell id="9YiL5SmmNUJITHrNY-xT-44" value="quality" style="whiteSpace=wrap;html=1;align=center;" parent="1" vertex="1">
          <mxGeometry x="1519.9999999999998" y="680" width="100" height="40" as="geometry" />
        </mxCell>
        <mxCell id="9YiL5SmmNUJITHrNY-xT-45" value="image" style="whiteSpace=wrap;html=1;align=center;" parent="1" vertex="1">
          <mxGeometry x="1419.9999999999998" y="680" width="100" height="40" as="geometry" />
        </mxCell>
        <mxCell id="9YiL5SmmNUJITHrNY-xT-46" value="price" style="whiteSpace=wrap;html=1;align=center;" parent="1" vertex="1">
          <mxGeometry x="1319.9999999999998" y="680" width="100" height="40" as="geometry" />
        </mxCell>
        <mxCell id="9YiL5SmmNUJITHrNY-xT-62" style="edgeStyle=orthogonalEdgeStyle;rounded=0;orthogonalLoop=1;jettySize=auto;html=1;exitX=0.5;exitY=0;exitDx=0;exitDy=0;entryX=0.5;entryY=1;entryDx=0;entryDy=0;" parent="1" source="9YiL5SmmNUJITHrNY-xT-47" target="9YiL5SmmNUJITHrNY-xT-18" edge="1">
          <mxGeometry relative="1" as="geometry" />
        </mxCell>
        <mxCell id="9YiL5SmmNUJITHrNY-xT-47" value="order_id" style="whiteSpace=wrap;html=1;align=center;" parent="1" vertex="1">
          <mxGeometry x="670" y="850" width="100" height="40" as="geometry" />
        </mxCell>
        <mxCell id="9YiL5SmmNUJITHrNY-xT-48" value="product_id" style="whiteSpace=wrap;html=1;align=center;" parent="1" vertex="1">
          <mxGeometry x="770" y="850" width="100" height="40" as="geometry" />
        </mxCell>
        <mxCell id="9YiL5SmmNUJITHrNY-xT-49" value="subtotal" style="whiteSpace=wrap;html=1;align=center;" parent="1" vertex="1">
          <mxGeometry x="870" y="850" width="100" height="40" as="geometry" />
        </mxCell>
        <mxCell id="9YiL5SmmNUJITHrNY-xT-50" value="quantity" style="whiteSpace=wrap;html=1;align=center;" parent="1" vertex="1">
          <mxGeometry x="970" y="850" width="100" height="40" as="geometry" />
        </mxCell>
        <mxCell id="9YiL5SmmNUJITHrNY-xT-51" value="" style="endArrow=none;html=1;rounded=0;exitX=0.1;exitY=0.75;exitDx=0;exitDy=0;exitPerimeter=0;" parent="1" source="9YiL5SmmNUJITHrNY-xT-42" edge="1">
          <mxGeometry width="50" height="50" relative="1" as="geometry">
            <mxPoint x="610" y="930" as="sourcePoint" />
            <mxPoint x="660" y="880" as="targetPoint" />
          </mxGeometry>
        </mxCell>
        <mxCell id="9YiL5SmmNUJITHrNY-xT-52" value="Order" style="text;html=1;strokeColor=none;fillColor=none;align=center;verticalAlign=middle;whiteSpace=wrap;rounded=0;" parent="1" vertex="1">
          <mxGeometry x="809.89" y="410" width="60" height="30" as="geometry" />
        </mxCell>
        <mxCell id="9YiL5SmmNUJITHrNY-xT-53" value="Product" style="text;html=1;strokeColor=none;fillColor=none;align=center;verticalAlign=middle;whiteSpace=wrap;rounded=0;" parent="1" vertex="1">
          <mxGeometry x="1119.9999999999998" y="640" width="60" height="30" as="geometry" />
        </mxCell>
        <mxCell id="9YiL5SmmNUJITHrNY-xT-54" value="Order Detail" style="text;html=1;strokeColor=none;fillColor=none;align=center;verticalAlign=middle;whiteSpace=wrap;rounded=0;" parent="1" vertex="1">
          <mxGeometry x="570" y="810" width="100" height="30" as="geometry" />
        </mxCell>
        <mxCell id="9YiL5SmmNUJITHrNY-xT-55" value="" style="endArrow=none;dashed=1;html=1;rounded=0;exitX=0.2;exitY=0.75;exitDx=0;exitDy=0;exitPerimeter=0;" parent="1" source="9YiL5SmmNUJITHrNY-xT-48" edge="1">
          <mxGeometry width="50" height="50" relative="1" as="geometry">
            <mxPoint x="805" y="930" as="sourcePoint" />
            <mxPoint x="855" y="880" as="targetPoint" />
          </mxGeometry>
        </mxCell>
        <mxCell id="9YiL5SmmNUJITHrNY-xT-56" value="" style="endArrow=none;dashed=1;html=1;rounded=0;exitX=0.2;exitY=0.75;exitDx=0;exitDy=0;exitPerimeter=0;" parent="1" source="9YiL5SmmNUJITHrNY-xT-47" edge="1">
          <mxGeometry width="50" height="50" relative="1" as="geometry">
            <mxPoint x="705" y="930" as="sourcePoint" />
            <mxPoint x="755" y="880" as="targetPoint" />
          </mxGeometry>
        </mxCell>
        <mxCell id="9YiL5SmmNUJITHrNY-xT-59" value="" style="endArrow=none;html=1;rounded=0;exitX=0.2;exitY=0.75;exitDx=0;exitDy=0;exitPerimeter=0;" parent="1" source="9YiL5SmmNUJITHrNY-xT-21" edge="1">
          <mxGeometry width="50" height="50" relative="1" as="geometry">
            <mxPoint x="1149.9999999999998" y="760" as="sourcePoint" />
            <mxPoint x="1199.9999999999998" y="710" as="targetPoint" />
          </mxGeometry>
        </mxCell>
        <mxCell id="9YiL5SmmNUJITHrNY-xT-60" style="edgeStyle=orthogonalEdgeStyle;rounded=0;orthogonalLoop=1;jettySize=auto;html=1;exitX=0.5;exitY=0;exitDx=0;exitDy=0;entryX=0;entryY=0.25;entryDx=0;entryDy=0;" parent="1" target="9YiL5SmmNUJITHrNY-xT-21" edge="1">
          <mxGeometry relative="1" as="geometry">
            <mxPoint x="839.7799999999999" y="850" as="sourcePoint" />
            <mxPoint x="1099.89" y="700" as="targetPoint" />
            <Array as="points">
              <mxPoint x="840" y="785" />
              <mxPoint x="1070" y="785" />
              <mxPoint x="1070" y="710" />
              <mxPoint x="1100" y="710" />
              <mxPoint x="1100" y="690" />
            </Array>
          </mxGeometry>
        </mxCell>
        <mxCell id="9YiL5SmmNUJITHrNY-xT-82" style="edgeStyle=orthogonalEdgeStyle;rounded=0;orthogonalLoop=1;jettySize=auto;html=1;exitX=0.5;exitY=1;exitDx=0;exitDy=0;entryX=0.75;entryY=1;entryDx=0;entryDy=0;" parent="1" edge="1">
          <mxGeometry relative="1" as="geometry">
            <mxPoint x="1164.9999999999998" y="720" as="targetPoint" />
            <Array as="points">
              <mxPoint x="710" y="1170" />
              <mxPoint x="1300" y="1170" />
              <mxPoint x="1300" y="810" />
              <mxPoint x="1130" y="810" />
              <mxPoint x="1130" y="760" />
              <mxPoint x="1165" y="760" />
            </Array>
            <mxPoint x="709.8899999999999" y="1130" as="sourcePoint" />
          </mxGeometry>
        </mxCell>
        <mxCell id="9YiL5SmmNUJITHrNY-xT-66" value="product_id" style="whiteSpace=wrap;html=1;align=center;" parent="1" vertex="1">
          <mxGeometry x="689.89" y="1090" width="100" height="40" as="geometry" />
        </mxCell>
        <mxCell id="a-Tf5Rxm08DyfLCDD2YA-49" style="edgeStyle=orthogonalEdgeStyle;rounded=0;orthogonalLoop=1;jettySize=auto;html=1;exitX=0.5;exitY=0;exitDx=0;exitDy=0;entryX=0.25;entryY=1;entryDx=0;entryDy=0;" parent="1" source="9YiL5SmmNUJITHrNY-xT-67" target="9YiL5SmmNUJITHrNY-xT-23" edge="1">
          <mxGeometry relative="1" as="geometry">
            <mxPoint x="520" y="310" as="targetPoint" />
            <Array as="points">
              <mxPoint x="640" y="1050" />
              <mxPoint x="510" y="1050" />
              <mxPoint x="510" y="320" />
              <mxPoint x="505" y="320" />
            </Array>
          </mxGeometry>
        </mxCell>
        <mxCell id="9YiL5SmmNUJITHrNY-xT-67" value="user_id" style="whiteSpace=wrap;html=1;align=center;" parent="1" vertex="1">
          <mxGeometry x="589.89" y="1090" width="100" height="40" as="geometry" />
        </mxCell>
        <mxCell id="9YiL5SmmNUJITHrNY-xT-68" value="comment_id" style="whiteSpace=wrap;html=1;align=center;" parent="1" vertex="1">
          <mxGeometry x="489.89" y="1090" width="100" height="40" as="geometry" />
        </mxCell>
        <mxCell id="9YiL5SmmNUJITHrNY-xT-69" value="Comment" style="text;html=1;strokeColor=none;fillColor=none;align=center;verticalAlign=middle;whiteSpace=wrap;rounded=0;" parent="1" vertex="1">
          <mxGeometry x="489.89" y="1050" width="60" height="30" as="geometry" />
        </mxCell>
        <mxCell id="9YiL5SmmNUJITHrNY-xT-72" value="content" style="whiteSpace=wrap;html=1;align=center;" parent="1" vertex="1">
          <mxGeometry x="789.89" y="1090" width="100" height="40" as="geometry" />
        </mxCell>
        <mxCell id="9YiL5SmmNUJITHrNY-xT-73" value="" style="endArrow=none;html=1;rounded=0;exitX=0.1;exitY=0.75;exitDx=0;exitDy=0;exitPerimeter=0;" parent="1" source="9YiL5SmmNUJITHrNY-xT-68" edge="1">
          <mxGeometry width="50" height="50" relative="1" as="geometry">
            <mxPoint x="524.89" y="1170" as="sourcePoint" />
            <mxPoint x="574.89" y="1120" as="targetPoint" />
          </mxGeometry>
        </mxCell>
        <mxCell id="9YiL5SmmNUJITHrNY-xT-74" value="" style="endArrow=none;dashed=1;html=1;rounded=0;exitX=0.2;exitY=0.75;exitDx=0;exitDy=0;exitPerimeter=0;" parent="1" source="9YiL5SmmNUJITHrNY-xT-67" edge="1">
          <mxGeometry width="50" height="50" relative="1" as="geometry">
            <mxPoint x="609.89" y="1170" as="sourcePoint" />
            <mxPoint x="659.89" y="1120" as="targetPoint" />
          </mxGeometry>
        </mxCell>
        <mxCell id="9YiL5SmmNUJITHrNY-xT-77" value="" style="endArrow=none;dashed=1;html=1;rounded=0;exitX=0.1;exitY=0.75;exitDx=0;exitDy=0;exitPerimeter=0;" parent="1" source="9YiL5SmmNUJITHrNY-xT-66" edge="1">
          <mxGeometry width="50" height="50" relative="1" as="geometry">
            <mxPoint x="724.89" y="1170" as="sourcePoint" />
            <mxPoint x="774.89" y="1120" as="targetPoint" />
          </mxGeometry>
        </mxCell>
        <mxCell id="9YiL5SmmNUJITHrNY-xT-83" value="street_address" style="whiteSpace=wrap;html=1;align=center;" parent="1" vertex="1">
          <mxGeometry x="1059.8899999999999" y="350" width="100" height="40" as="geometry" />
        </mxCell>
        <mxCell id="9YiL5SmmNUJITHrNY-xT-87" style="edgeStyle=orthogonalEdgeStyle;rounded=0;orthogonalLoop=1;jettySize=auto;html=1;exitX=0.5;exitY=0;exitDx=0;exitDy=0;entryX=0.75;entryY=1;entryDx=0;entryDy=0;" parent="1" source="9YiL5SmmNUJITHrNY-xT-84" target="9YiL5SmmNUJITHrNY-xT-23" edge="1">
          <mxGeometry relative="1" as="geometry" />
        </mxCell>
        <mxCell id="9YiL5SmmNUJITHrNY-xT-84" value="user_id" style="whiteSpace=wrap;html=1;align=center;" parent="1" vertex="1">
          <mxGeometry x="959.89" y="350" width="100" height="40" as="geometry" />
        </mxCell>
        <mxCell id="9YiL5SmmNUJITHrNY-xT-86" value="" style="endArrow=none;dashed=1;html=1;rounded=0;exitX=0.2;exitY=0.75;exitDx=0;exitDy=0;exitPerimeter=0;" parent="1" source="9YiL5SmmNUJITHrNY-xT-84" edge="1">
          <mxGeometry width="50" height="50" relative="1" as="geometry">
            <mxPoint x="989.89" y="430" as="sourcePoint" />
            <mxPoint x="1039.8899999999999" y="380" as="targetPoint" />
          </mxGeometry>
        </mxCell>
        <mxCell id="9YiL5SmmNUJITHrNY-xT-90" style="edgeStyle=orthogonalEdgeStyle;rounded=0;orthogonalLoop=1;jettySize=auto;html=1;exitX=0.5;exitY=0;exitDx=0;exitDy=0;entryX=0.75;entryY=1;entryDx=0;entryDy=0;" parent="1" source="9YiL5SmmNUJITHrNY-xT-88" target="9YiL5SmmNUJITHrNY-xT-18" edge="1">
          <mxGeometry relative="1" as="geometry" />
        </mxCell>
        <mxCell id="9YiL5SmmNUJITHrNY-xT-88" value="order_id" style="whiteSpace=wrap;html=1;align=center;" parent="1" vertex="1">
          <mxGeometry x="1819.9999999999998" y="680" width="100" height="40" as="geometry" />
        </mxCell>
        <mxCell id="9YiL5SmmNUJITHrNY-xT-89" value="" style="endArrow=none;dashed=1;html=1;rounded=0;exitX=0.2;exitY=0.75;exitDx=0;exitDy=0;exitPerimeter=0;entryX=0.9;entryY=0.75;entryDx=0;entryDy=0;entryPerimeter=0;" parent="1" source="9YiL5SmmNUJITHrNY-xT-88" target="9YiL5SmmNUJITHrNY-xT-88" edge="1">
          <mxGeometry width="50" height="50" relative="1" as="geometry">
            <mxPoint x="1744.9999999999998" y="760" as="sourcePoint" />
            <mxPoint x="1939.9999999999998" y="630" as="targetPoint" />
          </mxGeometry>
        </mxCell>
        <mxCell id="a-Tf5Rxm08DyfLCDD2YA-1" value="email" style="whiteSpace=wrap;html=1;align=center;" parent="1" vertex="1">
          <mxGeometry x="1609.8899999999999" y="250" width="100" height="40" as="geometry" />
        </mxCell>
        <mxCell id="a-Tf5Rxm08DyfLCDD2YA-2" value="phone" style="whiteSpace=wrap;html=1;align=center;" parent="1" vertex="1">
          <mxGeometry x="1709.8899999999999" y="250" width="100" height="40" as="geometry" />
        </mxCell>
        <mxCell id="a-Tf5Rxm08DyfLCDD2YA-3" value="createAt" style="whiteSpace=wrap;html=1;align=center;" parent="1" vertex="1">
          <mxGeometry x="1809.8899999999999" y="250" width="100" height="40" as="geometry" />
        </mxCell>
        <mxCell id="a-Tf5Rxm08DyfLCDD2YA-5" value="additional_chargers" style="whiteSpace=wrap;html=1;align=center;" parent="1" vertex="1">
          <mxGeometry x="1199.8899999999999" y="450" width="140" height="40" as="geometry" />
        </mxCell>
        <mxCell id="a-Tf5Rxm08DyfLCDD2YA-6" value="status" style="whiteSpace=wrap;html=1;align=center;" parent="1" vertex="1">
          <mxGeometry x="1339.8899999999999" y="450" width="100" height="40" as="geometry" />
        </mxCell>
        <mxCell id="a-Tf5Rxm08DyfLCDD2YA-7" value="delivery_status" style="whiteSpace=wrap;html=1;align=center;" parent="1" vertex="1">
          <mxGeometry x="1439.8899999999999" y="450" width="100" height="40" as="geometry" />
        </mxCell>
        <mxCell id="a-Tf5Rxm08DyfLCDD2YA-9" value="createdAt" style="whiteSpace=wrap;html=1;align=center;" parent="1" vertex="1">
          <mxGeometry x="1719.9999999999998" y="680" width="100" height="40" as="geometry" />
        </mxCell>
        <mxCell id="a-Tf5Rxm08DyfLCDD2YA-11" value="createdAt" style="whiteSpace=wrap;html=1;align=center;" parent="1" vertex="1">
          <mxGeometry x="1069.9999999999998" y="850" width="100" height="40" as="geometry" />
        </mxCell>
        <mxCell id="a-Tf5Rxm08DyfLCDD2YA-12" value="product_name" style="whiteSpace=wrap;html=1;align=center;" parent="1" vertex="1">
          <mxGeometry x="1169.9999999999998" y="850" width="100" height="40" as="geometry" />
        </mxCell>
        <mxCell id="a-Tf5Rxm08DyfLCDD2YA-13" value="createdAt" style="whiteSpace=wrap;html=1;align=center;" parent="1" vertex="1">
          <mxGeometry x="989.89" y="1090" width="100" height="40" as="geometry" />
        </mxCell>
        <mxCell id="a-Tf5Rxm08DyfLCDD2YA-14" value="star_count" style="whiteSpace=wrap;html=1;align=center;" parent="1" vertex="1">
          <mxGeometry x="889.89" y="1090" width="100" height="40" as="geometry" />
        </mxCell>
        <mxCell id="a-Tf5Rxm08DyfLCDD2YA-15" value="Text" style="text;html=1;align=center;verticalAlign=middle;resizable=0;points=[];autosize=1;strokeColor=none;fillColor=none;" parent="1" vertex="1">
          <mxGeometry x="1614.8899999999999" y="1158" width="50" height="30" as="geometry" />
        </mxCell>
        <mxCell id="a-Tf5Rxm08DyfLCDD2YA-18" value="createdAt" style="whiteSpace=wrap;html=1;align=center;" parent="1" vertex="1">
          <mxGeometry x="420" y="1260" width="100" height="40" as="geometry" />
        </mxCell>
        <mxCell id="a-Tf5Rxm08DyfLCDD2YA-27" style="edgeStyle=orthogonalEdgeStyle;rounded=0;orthogonalLoop=1;jettySize=auto;html=1;exitX=0.5;exitY=0;exitDx=0;exitDy=0;entryX=0;entryY=0.5;entryDx=0;entryDy=0;" parent="1" source="a-Tf5Rxm08DyfLCDD2YA-19" target="9YiL5SmmNUJITHrNY-xT-23" edge="1">
          <mxGeometry relative="1" as="geometry">
            <mxPoint x="420" y="260" as="targetPoint" />
          </mxGeometry>
        </mxCell>
        <mxCell id="a-Tf5Rxm08DyfLCDD2YA-19" value="user_id" style="whiteSpace=wrap;html=1;align=center;" parent="1" vertex="1">
          <mxGeometry x="320" y="1260" width="100" height="40" as="geometry" />
        </mxCell>
        <mxCell id="a-Tf5Rxm08DyfLCDD2YA-20" value="wish_list_id" style="whiteSpace=wrap;html=1;align=center;" parent="1" vertex="1">
          <mxGeometry x="220" y="1260" width="100" height="40" as="geometry" />
        </mxCell>
        <mxCell id="a-Tf5Rxm08DyfLCDD2YA-25" value="" style="endArrow=none;html=1;rounded=0;" parent="1" edge="1">
          <mxGeometry relative="1" as="geometry">
            <mxPoint x="230" y="1290" as="sourcePoint" />
            <mxPoint x="310" y="1290" as="targetPoint" />
          </mxGeometry>
        </mxCell>
        <mxCell id="a-Tf5Rxm08DyfLCDD2YA-26" value="" style="endArrow=none;dashed=1;html=1;rounded=0;entryX=0.301;entryY=0.75;entryDx=0;entryDy=0;entryPerimeter=0;exitX=0.701;exitY=0.75;exitDx=0;exitDy=0;exitPerimeter=0;" parent="1" source="a-Tf5Rxm08DyfLCDD2YA-19" target="a-Tf5Rxm08DyfLCDD2YA-19" edge="1">
          <mxGeometry width="50" height="50" relative="1" as="geometry">
            <mxPoint x="610.11" y="1210" as="sourcePoint" />
            <mxPoint x="660.11" y="1160" as="targetPoint" />
          </mxGeometry>
        </mxCell>
        <mxCell id="a-Tf5Rxm08DyfLCDD2YA-28" value="wishlist" style="text;html=1;align=center;verticalAlign=middle;resizable=0;points=[];autosize=1;strokeColor=none;fillColor=none;" parent="1" vertex="1">
          <mxGeometry x="220" y="1215" width="60" height="30" as="geometry" />
        </mxCell>
        <mxCell id="a-Tf5Rxm08DyfLCDD2YA-48" style="edgeStyle=orthogonalEdgeStyle;rounded=0;orthogonalLoop=1;jettySize=auto;html=1;exitX=0.5;exitY=1;exitDx=0;exitDy=0;entryX=0.75;entryY=1;entryDx=0;entryDy=0;" parent="1" source="a-Tf5Rxm08DyfLCDD2YA-30" target="9YiL5SmmNUJITHrNY-xT-21" edge="1">
          <mxGeometry relative="1" as="geometry">
            <mxPoint x="1370" y="750" as="targetPoint" />
            <Array as="points">
              <mxPoint x="840" y="1440" />
              <mxPoint x="1360" y="1440" />
              <mxPoint x="1360" y="770" />
              <mxPoint x="1195" y="770" />
            </Array>
          </mxGeometry>
        </mxCell>
        <mxCell id="a-Tf5Rxm08DyfLCDD2YA-30" value="product_id" style="whiteSpace=wrap;html=1;align=center;" parent="1" vertex="1">
          <mxGeometry x="789.89" y="1380" width="100" height="40" as="geometry" />
        </mxCell>
        <mxCell id="a-Tf5Rxm08DyfLCDD2YA-47" style="edgeStyle=orthogonalEdgeStyle;rounded=0;orthogonalLoop=1;jettySize=auto;html=1;exitX=0.5;exitY=1;exitDx=0;exitDy=0;entryX=0.5;entryY=1;entryDx=0;entryDy=0;" parent="1" source="a-Tf5Rxm08DyfLCDD2YA-31" target="a-Tf5Rxm08DyfLCDD2YA-20" edge="1">
          <mxGeometry relative="1" as="geometry" />
        </mxCell>
        <mxCell id="a-Tf5Rxm08DyfLCDD2YA-31" value="wishlist_id" style="whiteSpace=wrap;html=1;align=center;" parent="1" vertex="1">
          <mxGeometry x="689.89" y="1380" width="100" height="40" as="geometry" />
        </mxCell>
        <mxCell id="a-Tf5Rxm08DyfLCDD2YA-32" value="wishlist_detail_id" style="whiteSpace=wrap;html=1;align=center;" parent="1" vertex="1">
          <mxGeometry x="589.89" y="1380" width="100" height="40" as="geometry" />
        </mxCell>
        <mxCell id="a-Tf5Rxm08DyfLCDD2YA-38" value="Wishlist_Details" style="text;html=1;align=center;verticalAlign=middle;resizable=0;points=[];autosize=1;strokeColor=none;fillColor=none;" parent="1" vertex="1">
          <mxGeometry x="589.89" y="1338" width="110" height="30" as="geometry" />
        </mxCell>
        <mxCell id="a-Tf5Rxm08DyfLCDD2YA-43" value="" style="endArrow=none;html=1;rounded=0;" parent="1" edge="1">
          <mxGeometry relative="1" as="geometry">
            <mxPoint x="600" y="1410" as="sourcePoint" />
            <mxPoint x="680" y="1410" as="targetPoint" />
          </mxGeometry>
        </mxCell>
        <mxCell id="a-Tf5Rxm08DyfLCDD2YA-44" value="" style="endArrow=none;dashed=1;html=1;rounded=0;exitX=0.201;exitY=0.75;exitDx=0;exitDy=0;exitPerimeter=0;" parent="1" source="a-Tf5Rxm08DyfLCDD2YA-31" edge="1">
          <mxGeometry width="50" height="50" relative="1" as="geometry">
            <mxPoint x="620" y="1370" as="sourcePoint" />
            <mxPoint x="770" y="1410" as="targetPoint" />
          </mxGeometry>
        </mxCell>
        <mxCell id="a-Tf5Rxm08DyfLCDD2YA-45" value="" style="endArrow=none;dashed=1;html=1;rounded=0;entryX=0.801;entryY=0.75;entryDx=0;entryDy=0;entryPerimeter=0;exitX=0;exitY=0.75;exitDx=0;exitDy=0;" parent="1" edge="1">
          <mxGeometry width="50" height="50" relative="1" as="geometry">
            <mxPoint x="799.7899999999998" y="1410" as="sourcePoint" />
            <mxPoint x="879.89" y="1410" as="targetPoint" />
          </mxGeometry>
        </mxCell>
        <mxCell id="a-Tf5Rxm08DyfLCDD2YA-54" style="edgeStyle=orthogonalEdgeStyle;rounded=0;orthogonalLoop=1;jettySize=auto;html=1;exitX=0.5;exitY=1;exitDx=0;exitDy=0;entryX=0.25;entryY=0;entryDx=0;entryDy=0;" parent="1" source="a-Tf5Rxm08DyfLCDD2YA-50" target="9YiL5SmmNUJITHrNY-xT-23" edge="1">
          <mxGeometry relative="1" as="geometry">
            <mxPoint x="320" y="216.44443088107639" as="targetPoint" />
            <Array as="points">
              <mxPoint x="280" y="1550" />
              <mxPoint x="60" y="1550" />
              <mxPoint x="60" y="854" />
              <mxPoint x="321" y="854" />
              <mxPoint x="321" y="230" />
              <mxPoint x="505" y="230" />
            </Array>
          </mxGeometry>
        </mxCell>
        <mxCell id="a-Tf5Rxm08DyfLCDD2YA-50" value="user_Id" style="whiteSpace=wrap;html=1;align=center;" parent="1" vertex="1">
          <mxGeometry x="230" y="1490" width="100" height="40" as="geometry" />
        </mxCell>
        <mxCell id="a-Tf5Rxm08DyfLCDD2YA-52" style="edgeStyle=orthogonalEdgeStyle;rounded=0;orthogonalLoop=1;jettySize=auto;html=1;exitX=0.5;exitY=0;exitDx=0;exitDy=0;entryX=0.25;entryY=1;entryDx=0;entryDy=0;" parent="1" source="a-Tf5Rxm08DyfLCDD2YA-51" target="a-Tf5Rxm08DyfLCDD2YA-20" edge="1">
          <mxGeometry relative="1" as="geometry">
            <mxPoint x="220" y="1340" as="targetPoint" />
          </mxGeometry>
        </mxCell>
        <mxCell id="a-Tf5Rxm08DyfLCDD2YA-51" value="wishlist_id" style="whiteSpace=wrap;html=1;align=center;" parent="1" vertex="1">
          <mxGeometry x="130" y="1490" width="100" height="40" as="geometry" />
        </mxCell>
        <mxCell id="a-Tf5Rxm08DyfLCDD2YA-55" value="" style="endArrow=none;dashed=1;html=1;rounded=0;entryX=0.2;entryY=0.75;entryDx=0;entryDy=0;entryPerimeter=0;" parent="1" target="a-Tf5Rxm08DyfLCDD2YA-50" edge="1">
          <mxGeometry width="50" height="50" relative="1" as="geometry">
            <mxPoint x="310" y="1520" as="sourcePoint" />
            <mxPoint x="550" y="1460" as="targetPoint" />
          </mxGeometry>
        </mxCell>
        <mxCell id="a-Tf5Rxm08DyfLCDD2YA-56" value="" style="endArrow=none;dashed=1;html=1;rounded=0;exitX=0.1;exitY=0.75;exitDx=0;exitDy=0;exitPerimeter=0;" parent="1" source="a-Tf5Rxm08DyfLCDD2YA-51" edge="1">
          <mxGeometry width="50" height="50" relative="1" as="geometry">
            <mxPoint x="500" y="1510" as="sourcePoint" />
            <mxPoint x="210" y="1520" as="targetPoint" />
          </mxGeometry>
        </mxCell>
        <mxCell id="a-Tf5Rxm08DyfLCDD2YA-57" value="order wishlist" style="text;html=1;align=center;verticalAlign=middle;resizable=0;points=[];autosize=1;strokeColor=none;fillColor=none;" parent="1" vertex="1">
          <mxGeometry x="85" y="1448" width="90" height="30" as="geometry" />
        </mxCell>
        <mxCell id="u-AlbhbpAFBGdQU0LX99-1" value="&lt;b&gt;&lt;font style=&quot;font-size: 18px;&quot;&gt;Relational Schema&lt;/font&gt;&lt;/b&gt;" style="text;html=1;align=center;verticalAlign=middle;resizable=0;points=[];autosize=1;strokeColor=none;fillColor=none;" parent="1" vertex="1">
          <mxGeometry x="120" y="105" width="180" height="40" as="geometry" />
        </mxCell>
      </root>
    </mxGraphModel>
  </diagram>
</mxfile>
